<?xml version="1.0" encoding="UTF-8"?>
<level>
  <owner>Fistachka</owner>
  <repo>kabynebylo-web</repo>
  <version>v1.0.0</version>
  <next number="1" owner="Fistachka" repo="kabynebylo-2"/>
  <readme>
    <ru>7d0f119f06031aa2cd9730dff7f0d2f3a97f1601bc58975e7b5016b313f73186</ru>
    <en>8237f996964e27103a84971ce5373dc5f3f431f214c9dbf98e0eaa7ca388a31a</en>
  </readme>
  <license>b1b99f5538d1fd3702219bff50c665196dfa42f6ee755c37fe41a6178d6bc6e5</license>
  <exercise number="1">
    <scale>minor</scale>
    <bpm>132</bpm>
    <lowestNote>5</lowestNote>
    <tonalities>12</tonalities>
    <video name="1t.mp4" size="2386532" type="video/mp4" volume="0.5">9053a94bacd7f6fd7354023c622f5fd068b7f30ad39ca5448cd8d42c0974b0fa</video>
    <notes>
      <note number="1" values="5" ticks="100" durationTicks="71" ppq="192" velocity="0.681"/>
      <note number="2" values="5" ticks="192" durationTicks="58" ppq="192" velocity="0.803"/>
      <note number="3" values="58" ticks="292" durationTicks="295" ppq="192" velocity="0.689"/>
      <note number="4" values="28" ticks="626" durationTicks="93" ppq="192" velocity="0.784"/>
      <note number="5" values="48" ticks="720" durationTicks="91" ppq="192" velocity="0.671"/>
      <note number="6" values="38" ticks="805" durationTicks="95" ppq="192" velocity="0.819"/>
      <note number="7" values="18" ticks="897" durationTicks="376" ppq="192" velocity="0.719"/>
    </notes>
  </exercise>
  <exercise number="2">
    <scale>minor</scale>
    <bpm>132</bpm>
    <lowestNote>7</lowestNote>
    <tonalities>12</tonalities>
    <video name="2t.mp4" size="3040053" type="video/mp4" volume="0.5">b8dc09f1f389021b1eeea78ed1528281bc9fe273c5377d64bf401852344049b1</video>
    <notes>
      <note number="1" values="7" ticks="214" durationTicks="70" ppq="192" velocity="0.982"/>
      <note number="2" values="7" ticks="313" durationTicks="88" ppq="192" velocity="0.992"/>
      <note number="3" values="78" ticks="408" durationTicks="169" ppq="192" velocity="1"/>
      <note number="4" values="68" ticks="615" durationTicks="63" ppq="192" velocity="1"/>
      <note number="5" values="68" ticks="723" durationTicks="246" ppq="192" velocity="1"/>
      <note number="6" values="58" ticks="1007" durationTicks="466" ppq="192" velocity="1"/>
    </notes>
  </exercise>
  <exercise number="3">
    <scale>minor</scale>
    <bpm>132</bpm>
    <lowestNote>18</lowestNote>
    <tonalities>12</tonalities>
    <video name="3t.mp4" size="2670479" type="video/mp4" volume="0.5">05b86a2dbb9f9370b0fde5d089aeb00ba771def38ec3d6336f4d1fa62c2524f2</video>
    <notes>
      <note number="1" values="188" ticks="189" durationTicks="96" ppq="192" velocity="0.952"/>
      <note number="2" values="68" ticks="290" durationTicks="61" ppq="192" velocity="0.957"/>
      <note number="3" values="48" ticks="385" durationTicks="96" ppq="192" velocity="0.947"/>
      <note number="4" values="28" ticks="497" durationTicks="78" ppq="192" velocity="0.954"/>
      <note number="5" values="68" ticks="655" durationTicks="162" ppq="192" velocity="0.942"/>
      <note number="6" values="58" ticks="866" durationTicks="93" ppq="192" velocity="0.952"/>
      <note number="7" values="58" ticks="1055" durationTicks="350" ppq="192" velocity="0.912"/>
    </notes>
  </exercise>
  <exercise number="4">
    <scale>minor</scale>
    <bpm>132</bpm>
    <lowestNote>5</lowestNote>
    <tonalities>12</tonalities>
    <video name="4t.mp4" size="2148005" type="video/mp4" volume="0.5">e285c3b126f89daa9787329910134b14722c2510f65091987d45117136054044</video>
    <notes>
      <note number="1" values="5" ticks="99" durationTicks="78" ppq="192" velocity="0.797"/>
      <note number="2" values="5" ticks="207" durationTicks="179" ppq="192" velocity="0.676"/>
      <note number="3" values="58" ticks="350" durationTicks="274" ppq="192" velocity="0.824"/>
      <note number="4" values="48" ticks="672" durationTicks="88" ppq="192" velocity="0.674"/>
      <note number="5" values="48" ticks="798" durationTicks="198" ppq="192" velocity="0.844"/>
      <note number="6" values="38" ticks="1077" durationTicks="190" ppq="192" velocity="0.819"/>
    </notes>
  </exercise>
  <exercise number="5">
    <scale>minor</scale>
    <bpm>132</bpm>
    <lowestNote>5</lowestNote>
    <tonalities>12</tonalities>
    <video name="5t.mp4" size="1417568" type="video/mp4" volume="0.5">3eed6c1930b88d40114474248a938b62337a925dc29f832423fe64a1fa6e1e29</video>
    <notes>
      <note number="1" values="5" ticks="192" durationTicks="59" ppq="192" velocity="0.747"/>
      <note number="2" values="5" ticks="290" durationTicks="99" ppq="192" velocity="0.782"/>
      <note number="3" values="58" ticks="410" durationTicks="126" ppq="192" velocity="0.824"/>
      <note number="4" values="28" ticks="564" durationTicks="120" ppq="192" velocity="0.784"/>
      <note number="5" values="48" ticks="760" durationTicks="83" ppq="192" velocity="0.812"/>
      <note number="6" values="38" ticks="863" durationTicks="86" ppq="192" velocity="0.724"/>
      <note number="7" values="18" ticks="1009" durationTicks="201" ppq="192" velocity="0.839"/>
    </notes>
  </exercise>
  <exercise number="6">
    <scale>minor</scale>
    <bpm>132</bpm>
    <lowestNote>7</lowestNote>
    <tonalities>12</tonalities>
    <video name="6t.mp4" size="3079895" type="video/mp4" volume="0.5">920d6a601f03ec2eac9d2840b68ca89ac780b18bc9345498baa93817358c277f</video>
    <notes>
      <note number="1" values="7" ticks="143" durationTicks="96" ppq="192" velocity="0.762"/>
      <note number="2" values="7" ticks="255" durationTicks="144" ppq="192" velocity="0.754"/>
      <note number="3" values="78" ticks="435" durationTicks="355" ppq="192" velocity="0.887"/>
      <note number="4" values="68" ticks="892" durationTicks="153" ppq="192" velocity="0.689"/>
      <note number="5" values="68" ticks="1094" durationTicks="311" ppq="192" velocity="0.824"/>
      <note number="6" values="58" ticks="1471" durationTicks="422" ppq="192" velocity="0.819"/>
    </notes>
  </exercise>
  <exercise number="7">
    <scale>minor</scale>
    <bpm>132</bpm>
    <lowestNote>18</lowestNote>
    <tonalities>12</tonalities>
    <video name="7t.mp4" size="2328034" type="video/mp4" volume="0.5">4467bbbb899919c75cd46339f21a466b13142fe449e2b651a37d0e79534391c6</video>
    <notes>
      <note number="1" values="188" ticks="431" durationTicks="191" ppq="192" velocity="0.832"/>
      <note number="2" values="68" ticks="671" durationTicks="76" ppq="192" velocity="0.752"/>
      <note number="3" values="48" ticks="778" durationTicks="96" ppq="192" velocity="0.729"/>
      <note number="4" values="28" ticks="872" durationTicks="93" ppq="192" velocity="0.714"/>
      <note number="5" values="68" ticks="1011" durationTicks="91" ppq="192" velocity="0.852"/>
      <note number="6" values="58" ticks="1108" durationTicks="67" ppq="192" velocity="0.819"/>
      <note number="7" values="58" ticks="1206" durationTicks="184" ppq="192" velocity="0.779"/>
    </notes>
  </exercise>
  <exercise number="8">
    <scale>minor</scale>
    <bpm>132</bpm>
    <lowestNote>5</lowestNote>
    <tonalities>12</tonalities>
    <video name="8t.mp4" size="1056155" type="video/mp4" volume="0.5">ff974a5f36fff272b759c4cec9015b3dd356c1066322810d7952fba3ed326653</video>
    <notes>
      <note number="1" values="5" ticks="68" durationTicks="69" ppq="192" velocity="0.976"/>
      <note number="2" values="5" ticks="166" durationTicks="91" ppq="192" velocity="0.984"/>
      <note number="3" values="58" ticks="263" durationTicks="86" ppq="192" velocity="0.919"/>
      <note number="4" values="48" ticks="357" durationTicks="63" ppq="192" velocity="1"/>
      <note number="5" values="48" ticks="453" durationTicks="91" ppq="192" velocity="1"/>
      <note number="6" values="38" ticks="543" durationTicks="81" ppq="192" velocity="1"/>
    </notes>
  </exercise>
  <exercise number="9">
    <scale>minor</scale>
    <bpm>132</bpm>
    <lowestNote>18</lowestNote>
    <tonalities>12</tonalities>
    <video name="9t.mp4" size="1018684" type="video/mp4" volume="0.5">8c10ed693efecec7b069086501763b344b48e32ee6ccb5a54bf561154cff8d12</video>
    <notes>
      <note number="1" values="188" ticks="49" durationTicks="96" ppq="192" velocity="0.945"/>
      <note number="2" values="68" ticks="191" durationTicks="78" ppq="192" velocity="0.857"/>
      <note number="3" values="48" ticks="291" durationTicks="96" ppq="192" velocity="0.842"/>
      <note number="4" values="28" ticks="390" durationTicks="90" ppq="192" velocity="0.782"/>
      <note number="5" values="68" ticks="495" durationTicks="91" ppq="192" velocity="0.937"/>
      <note number="6" values="58" ticks="603" durationTicks="55" ppq="192" velocity="0.802"/>
      <note number="7" values="58" ticks="692" durationTicks="170" ppq="192" velocity="0.906"/>
    </notes>
  </exercise>
  <exercise number="10">
    <scale>minor</scale>
    <bpm>132</bpm>
    <lowestNote>5</lowestNote>
    <tonalities>12</tonalities>
    <video name="10t.mp4" size="947162" type="video/mp4" volume="0.5">709d20001ee1294a3e65f6789f677aaabdda1446ee6c3e989c0fa2cb787bde44</video>
    <notes>
      <note number="1" values="5" ticks="107" durationTicks="69" ppq="192" velocity="0.794"/>
      <note number="2" values="5" ticks="207" durationTicks="93" ppq="192" velocity="0.724"/>
      <note number="3" values="58" ticks="305" durationTicks="96" ppq="192" velocity="0.752"/>
      <note number="4" values="79" ticks="399" durationTicks="93" ppq="192" velocity="0.706"/>
      <note number="5" values="28" ticks="496" durationTicks="91" ppq="192" velocity="0.754"/>
      <note number="6" values="18" ticks="591" durationTicks="190" ppq="192" velocity="0.694"/>
    </notes>
  </exercise>
</level>
